<svg id="Vrstva_1" data-name="Vrstva 1" xmlns="http://www.w3.org/2000/svg" viewBox="0 0 447.68 220"><defs><style>.cls-1{fill:#00497b;}</style></defs><path class="cls-1" d="M129.41,74.54c-8.79-5.07-20.08-7.91-31.77-8h-.09c-11.69.11-23,3-31.72,8l-.08,0-.68.34v59.72a8.23,8.23,0,0,0,2.83,6.17l26.68,23.42a4.63,4.63,0,0,0,6,0l26.68-23.43a8.23,8.23,0,0,0,2.83-6.16V74.92Zm-.64,60.08a6.84,6.84,0,0,1-2.37,5.14L99.72,163.18a3.24,3.24,0,0,1-4.24,0L68.8,139.76a6.84,6.84,0,0,1-2.37-5.14v-2.07a8.47,8.47,0,0,0,1.48,1.69l26.67,23.41.32.26,2.7,2.37,2.69-2.37a.22.22,0,0,0,.09-.07,2.23,2.23,0,0,0,.24-.19l26.67-23.41a8.65,8.65,0,0,0,1.48-1.67Zm0-6.55a6.95,6.95,0,0,1-2.37,5.14l-1.3,1.14L99.72,156.63l-.2.16,0,0a3.23,3.23,0,0,1-3.76,0h0a1.3,1.3,0,0,1-.23-.18L70.11,134.35l-1.3-1.14a7.07,7.07,0,0,1-1.3-1.49,6.78,6.78,0,0,1-1.08-3.66V75.74l0,0c8.33-4.79,19.18-7.73,31.09-7.84h.09c11.91.11,22.77,3.05,31.09,7.84l0,0Z"/><path class="cls-1" d="M97.58,63.88a65.55,65.55,0,0,1,12.81,1.45l1.66.36V60.41A4.77,4.77,0,0,0,107.42,56h-1.37v2.36c-1.37-.21-2.79-.39-4.37-.51V55.52l-1-.29a10.87,10.87,0,0,0-6.19,0l-1,.29v2.31c-1.59.12-3,.3-4.38.51V56H87.77a4.81,4.81,0,0,0-4.61,4.17v5.53l1.65-.36a65.49,65.49,0,0,1,12.77-1.45M84.52,60.41h0a3.44,3.44,0,0,1,3.26-3.06v2.58a66.65,66.65,0,0,1,6.93-.82h.18V56.54a9.38,9.38,0,0,1,5.42,0v2.57h.18a67,67,0,0,1,6.93.82V57.35a3.44,3.44,0,0,1,3.26,3.06h0V64A66.75,66.75,0,0,0,97.6,62.51,66.67,66.67,0,0,0,84.52,64Z"/><path class="cls-1" d="M120.78,104.6a27.65,27.65,0,0,1,.83-5.65s-5.61-2.2-5.61,4.33c0,6.11,8.07,5.63,9.1,12.54V108s-4.32-.91-4.32-3.35"/><path class="cls-1" d="M96.94,130.48c0-7.49-7-19.73-22-19.73v0c0,.48-.4,1.89-.91,1.89H70.1v11.93L72,122.86l.46-.47L81.63,113a19.32,19.32,0,0,1,5.46,2.61L74.19,126.3l1,1.19a.85.85,0,0,1-.11,1.18L73.52,130l-.35.3-.68.59,7.36,6.46,1.91-1.59a.94.94,0,0,1,1.25,0l2.06,2L87,135s-3.62-10.09,4.87-14.64a18.42,18.42,0,0,1,3.67,10,5.78,5.78,0,0,0-3.64,5.83L85.12,142l12.5,11.76V149.4a.9.9,0,0,1,.92-.87h3l3.26-7.62s-7.88-2.92-7.88-10.42"/><path class="cls-1" d="M110.15,139.78l-5,7.36,18.81-16.5a3.46,3.46,0,0,0,1.18-2.58v-9.57c-1.29,7.77-14.95,12.35-14.95,21.29"/><path class="cls-1" d="M85.32,84.7c.63,0,2.6-.49,2.6-.89s-.52-2.06-2.65-.65a.61.61,0,0,0-.23.33c-.08.4-.2,1.21.28,1.21"/><path class="cls-1" d="M106.24,118.42a13,13,0,0,0,6.16,2.91c3.84.69,9-.83,9-4.15,0-7.74-8.32-5.26-8.32-13.9s9.43-10.36,12-4.33V77.77c-7.72-4-17.55-6.25-27.5-6.39A26.71,26.71,0,0,1,102,72.44c.48.17,1,.36,1.4.56,6.32,2.75,10.24,8.11,10.24,13.87,0,.13,0,.24,0,.36a16,16,0,0,0-2.68-3c-3.7-3.19-10.8-6.59-23.64-4.72h-.12c-.23,0-.46,0-.66,0h0s0,0,0,0h0s0,0,0,0c-1.9-.23-2.87-1.41-2.87-4,0-.17,0-1.55,0-1.69,0-.39.09-.72.12-.92A55.64,55.64,0,0,0,70.1,77.77v29.71c.07,0,18.93-3.79,36.14,10.94m3.79.78,0,0a11.23,11.23,0,0,1-2.85-1.77c-7.82-6.7-15.06-9.63-21.62-10.86a68.46,68.46,0,0,0,9-10.53v.07c.08,5.75,4.43,7.92,8.63,10,3.39,1.7,6.85,3.44,8.68,7a4.61,4.61,0,0,1-1.79,6m1-9.27c-2.06-2.22-4.79-3.59-7.35-4.87-4.24-2.11-7.89-3.94-8-9A7.52,7.52,0,0,1,96,93.62l0-.05c.11-.2.21-.41.31-.61s.19-.41.27-.61a5,5,0,0,0,.22-.56c.08-.2.14-.39.2-.59,0,0,0-.1,0-.15a3.11,3.11,0,0,0,.11-.41c0-.18.08-.36.11-.54a.34.34,0,0,1,0-.1,18.19,18.19,0,0,0,5,2.53c3.35,1.33,7,2.82,8.51,5.89a11,11,0,0,0-1.07,4.78c0,3.53.63,5.43,1.34,6.73m-.91-24.74a13.79,13.79,0,0,1,3.38,4.22A19.64,19.64,0,0,1,111.4,97c-1.88-2.91-5.55-4.39-8.68-5.64-2.9-1.16-5.4-2.16-5.4-3.83A6.61,6.61,0,0,0,96.14,84l-.06-.11-.21-.34c-.08-.12-.16-.24-.25-.35l-.17-.22a2.66,2.66,0,0,0-.26-.31l-.06-.07q-.18-.19-.39-.39a9.3,9.3,0,0,0-.83-.7s0,0,0,0l-.45-.3A4.53,4.53,0,0,0,93,80.9a3.62,3.62,0,0,0-.48-.25,2.41,2.41,0,0,0-.33-.15,5,5,0,0,0-.49-.2c9.75-.59,15.38,2.22,18.46,4.89M85.11,81a3.94,3.94,0,0,1,.74-.17h1.32c1.47,0,5.25.3,7.35,3.13l.21.29a2.55,2.55,0,0,1,.24.39c.08.13.15.27.22.41a6.31,6.31,0,0,1,.37.92,4.26,4.26,0,0,1,.16.54c0,.19.09.38.13.58s.05.3.07.46,0,.1,0,.15c0,.43.07.88.07,1.36a6.75,6.75,0,0,1-.42,2.18s0,.09,0,.14-.12.33-.2.5l-.23.51-.09.13c-1.15,1.4-1.65,2.16-3.44,2.45A17.36,17.36,0,0,1,88,94.51a16.54,16.54,0,0,0-4.1-.07c-1.11.13-2.59,0-2.59-1.41a1.31,1.31,0,0,1,1.15-1.34c1.29,0,4.89,1.4,4.89-.46,0-1.51-3.32-.36-4.85-.36S80.9,90.19,80.9,89c0-1.81,1.29-1.83,1.29-2.58,0-.58-.08-.81-.23-.81-.36,0-.71,1.64-1.15,1.64-.69,0-1.31-1.37-1.31-2.28,0-.75,3.76-3.09,5.61-3.91"/><path class="cls-1" d="M159.28,87.64h4.5c2.21,0,3.15-.91,3.15-3.15v-.6c0-2.18-.94-3.14-3.15-3.14h-1.53c-3.12,0-4.66-1.59-4.66-4.71v-.26c0-3.14,1.51-4.78,4.66-4.78h5.85v4.11h-1.35l-.26-2.55h-4.06c-2.26,0-3.15.93-3.15,3.14v.37c0,2.21.91,3.12,3.15,3.12H164c3.1,0,4.63,1.64,4.63,4.76v.49c0,3.28-1.56,4.76-4.89,4.76h-6V85.09h1.35Z"/><path class="cls-1" d="M175,76.9V87.8l1.67.23V89.2h-4.92V88l1.64-.23v-11l-1.64-.23V75.42h13.18c2.55,0,3.85,1.3,3.85,3.85V87.8l1.64.23V89.2h-3.25V79.34c0-1.71-.7-2.44-2.44-2.44h-2.84V87.8l1.67.23V89.2h-3.28V76.9Z"/><path class="cls-1" d="M196.13,75.42V87.8l1.67.23V89.2h-4.92V88l1.64-.23v-11l-1.64-.23V75.42Zm2.06-4.68-3.49,2.49-.7-.91,3.2-2.8Z"/><path class="cls-1" d="M201.18,79.24c0-2.52,1.33-3.82,3.85-3.82H210v3.82h-1.2l-.26-2.34h-3.25c-1.77,0-2.47.7-2.47,2.42v6c0,1.72.7,2.42,2.47,2.42H210V89.2H205c-2.52,0-3.85-1.3-3.85-3.82Z"/><path class="cls-1" d="M226.06,89.2h-3.25V79.34c0-1.71-.7-2.44-2.44-2.44h-3.9V87.8l1.66.23V89.2h-4.91V88l1.64-.23V71.88l-1.64-.23V70.48h3.25v4.94h4.11c2.52,0,3.85,1.3,3.85,3.85V87.8l1.63.23Z"/><path class="cls-1" d="M239.35,85.48c0,2.55-1.3,3.85-3.84,3.85h-2.34c-2.53,0-3.85-1.3-3.85-3.85V79.14c0-2.53,1.32-3.85,3.85-3.85h2.34c2.54,0,3.84,1.32,3.84,3.85Zm-1.61-6.24c0-1.77-.7-2.47-2.44-2.47h-1.9c-1.77,0-2.47.7-2.47,2.44v6.17c0,1.76.7,2.47,2.47,2.47h1.9c1.74,0,2.44-.71,2.44-2.45Z"/><path class="cls-1" d="M242.09,75.42h2.8l3.25,11.26h.16l2.86-9.86-1.56-.23V75.42h4.71v1.17l-1.54.23L249.16,89.2h-1.9l-3.61-12.38-1.56-.23Z"/><path class="cls-1" d="M264,79.21l-.24-2.31h-3c-1.72,0-2.42.65-2.42,2.26s.68,2.34,2.42,2.34h1.22c2.52,0,3.82,1.33,3.82,3.8v.13c0,2.47-1.3,3.77-3.82,3.77h-5.2V85.48h1.2l.26,2.24h3.51c1.74,0,2.44-.63,2.44-2.37s-.7-2.42-2.44-2.42h-1.23c-2.52,0-3.79-1.32-3.79-3.72v-.1c0-2.39,1.27-3.69,3.79-3.69h4.74v3.79Z"/><path class="cls-1" d="M268.2,88l1.63-.23V71.88l-1.63-.23V70.48h3.25v11h3l2.44-6h2.65v1.17l-1.53.23-2.16,5.36,2.44,5.62,1.54.23V89.2h-2.63l-2.75-6.27h-3V87.8l1.66.23V89.2H268.2Z"/><path class="cls-1" d="M283.28,75.42h4.39c2.55,0,3.85,1.32,3.85,3.85V87.8l1.66.23V89.2H286c-2.53,0-3.8-1.3-3.8-3.8v-.26c0-2.49,1.27-3.82,3.8-3.82h4v-2c0-1.71-.7-2.44-2.45-2.44h-4.18Zm2.91,7.3c-1.72,0-2.42.71-2.42,2.45s.6,2.63,2.42,2.63h3.72V82.72Zm4.16-12-3.48,2.49-.71-.91,3.2-2.8Z"/><path class="cls-1" d="M308.94,79.21l-.23-2.31h-3c-1.72,0-2.42.65-2.42,2.26s.67,2.34,2.42,2.34h1.22c2.52,0,3.82,1.33,3.82,3.8v.13c0,2.47-1.3,3.77-3.82,3.77h-5.2V85.48h1.2l.25,2.24h3.52c1.74,0,2.44-.63,2.44-2.37s-.7-2.42-2.44-2.42h-1.23c-2.52,0-3.79-1.32-3.79-3.72v-.1c0-2.39,1.27-3.69,3.79-3.69h4.74v3.79Z"/><path class="cls-1" d="M313.44,75.47h1.41c.41,0,.57-.16.57-.57V72.53H317v2.89h3.2V76.9H317v8.53c0,1.71.7,2.42,2.44,2.42H321v1.48h-1.76c-2.55,0-3.85-1.3-3.85-3.82V76.9h-1.93Z"/><path class="cls-1" d="M332.4,75.42v3.79h-1.2L331,76.9h-1.66c-1.77,0-2.47.73-2.47,2.44V87.8l1.66.23V89.2h-4.91V88l1.63-.23V79.27c0-2.53,1.33-3.85,3.85-3.85ZM328.29,73l-2.42-3.33h1.41l1.61,2h.16l1.61-2h1.4L329.64,73Z"/><path class="cls-1" d="M339.24,89.2c-2.52,0-3.85-1.3-3.85-3.82V79.14c0-2.53,1.33-3.85,3.85-3.85h2.08c2.52,0,3.85,1.32,3.85,3.85v3.71H337V85.3c0,1.72.71,2.42,2.47,2.42h5.26V89.2ZM337,81.48h6.56V79.21c0-1.71-.7-2.44-2.45-2.44h-1.64c-1.76,0-2.47.73-2.47,2.44Z"/><path class="cls-1" d="M354.64,71.65V70.48h3.25V87.8l1.63.23V89.2h-7.38c-2.52,0-3.85-1.3-3.85-3.82V79.27c0-2.53,1.33-3.85,3.85-3.85h4.13V71.88Zm1.63,16.07V76.9h-3.9c-1.76,0-2.47.73-2.47,2.44v6c0,1.72.71,2.42,2.47,2.42Z"/><path class="cls-1" d="M374.84,89.2h-3.25V79.34c0-1.74-.7-2.44-2.42-2.44h-3.92V87.8l1.66.23V89.2H362V88l1.63-.23v-11L362,76.59V75.42h7.35c2.55,0,3.85,1.3,3.85,3.85V87.8l1.64.23Z"/><path class="cls-1" d="M380.56,75.42V87.8l1.67.23V89.2h-4.92V88L379,87.8v-11l-1.64-.23V75.42Zm2.06-4.68-3.49,2.49-.7-.91,3.2-2.8Z"/><path class="cls-1" d="M156.94,122.31v-1.17l1.64-.23V105l-1.64-.23v-1.17h7.34c2.55,0,3.85,1.33,3.85,3.85v6.11c0,2.52-1.3,3.82-3.85,3.82h-4.09v3.54l1.67.23v1.17Zm3.25-17.24v10.82h3.88c1.74,0,2.44-.7,2.44-2.42v-6c0-1.72-.7-2.45-2.44-2.45Z"/><path class="cls-1" d="M180.19,103.59v3.8H179l-.24-2.32H177.1c-1.77,0-2.47.73-2.47,2.45V116l1.66.23v1.17h-4.91V116.2L173,116v-8.53c0-2.52,1.32-3.85,3.84-3.85Z"/><path class="cls-1" d="M182.92,103.59h3.25v9.86c0,1.74.71,2.44,2.45,2.44h3.9V105l-1.67-.23v-1.17h4.92v1.17l-1.64.23v11l1.64.23v1.17h-7.36c-2.55,0-3.85-1.3-3.85-3.85V105l-1.64-.23Zm6.43-6.66a2.45,2.45,0,0,1,0,4.89,2.45,2.45,0,0,1,0-4.89Zm0,3.67a1.2,1.2,0,0,0,1.24-1.22,1.24,1.24,0,1,0-1.24,1.22Z"/><path class="cls-1" d="M202.14,105.07V116l1.67.23v1.17h-4.92V116.2l1.64-.23V105l-1.64-.23v-1.17h13.18c2.55,0,3.85,1.3,3.85,3.85V116l1.64.23v1.17h-3.25v-9.85c0-1.72-.7-2.45-2.44-2.45H209V116l1.67.23v1.17h-3.28v-12.3Z"/><path class="cls-1" d="M229.94,118.46c0,2.68-1.43,3.85-4.13,3.85h-4.5v-1.48h4.57c1.75,0,2.45-.73,2.45-2.44v-2.32h-4.11c-2.55,0-3.85-1.3-3.85-3.82V105l-1.64-.23v-1.17H222v8.58c0,1.72.71,2.42,2.45,2.42h3.9V105l-1.67-.23v-1.17h4.92v1.17l-1.64.23Z"/><path class="cls-1" d="M241.62,107.39l-.24-2.32h-3c-1.72,0-2.42.65-2.42,2.26s.68,2.35,2.42,2.35h1.22c2.53,0,3.83,1.32,3.83,3.79v.13c0,2.47-1.3,3.77-3.83,3.77h-5.2v-3.72h1.2l.26,2.24h3.51c1.74,0,2.44-.62,2.44-2.37s-.7-2.41-2.44-2.41h-1.22c-2.53,0-3.8-1.33-3.8-3.72v-.11c0-2.39,1.27-3.69,3.8-3.69h4.73v3.8Z"/><path class="cls-1" d="M250.15,98.65V116l1.66.23v1.17H246.9V116.2l1.64-.23V100.05l-1.64-.23V98.65Z"/><path class="cls-1" d="M265.1,113.65c0,2.55-1.3,3.85-3.85,3.85h-2.34c-2.52,0-3.85-1.3-3.85-3.85v-6.34c0-2.52,1.33-3.85,3.85-3.85h2.34c2.55,0,3.85,1.33,3.85,3.85Zm-1.61-6.24c0-1.77-.71-2.47-2.45-2.47h-1.9c-1.76,0-2.47.7-2.47,2.45v6.16c0,1.77.71,2.47,2.47,2.47H261c1.74,0,2.45-.7,2.45-2.44Z"/><path class="cls-1" d="M267.31,103.59h2.81l3.25,11.26h.16l2.86-9.86-1.56-.23v-1.17h4.7v1.17L278,105l-3.62,12.38h-1.89L268.87,105l-1.56-.23Z"/><path class="cls-1" d="M283.25,103.59h4.4c2.54,0,3.84,1.33,3.84,3.85V116l1.67.23v1.17h-7.23c-2.52,0-3.8-1.3-3.8-3.79v-.26c0-2.5,1.28-3.83,3.8-3.83h3.95v-2c0-1.72-.7-2.45-2.44-2.45h-4.19Zm2.91,7.31c-1.71,0-2.41.7-2.41,2.44s.59,2.63,2.41,2.63h3.72V110.9Zm4.16-12-3.48,2.5-.7-.91,3.2-2.81Z"/><path class="cls-1" d="M308.92,107.39l-.24-2.32h-3c-1.71,0-2.42.65-2.42,2.26s.68,2.35,2.42,2.35h1.22c2.53,0,3.83,1.32,3.83,3.79v.13c0,2.47-1.3,3.77-3.83,3.77h-5.2v-3.72h1.2l.26,2.24h3.51c1.74,0,2.44-.62,2.44-2.37s-.7-2.41-2.44-2.41h-1.22c-2.52,0-3.8-1.33-3.8-3.72v-.11c0-2.39,1.28-3.69,3.8-3.69h4.73v3.8Zm-3.43-6.27-2.42-3.33h1.4l1.61,2h.16l1.61-2h1.41l-2.42,3.33Z"/><path class="cls-1" d="M313.68,116.2l1.64-.23V100.05l-1.64-.23V98.65h3.25v11h3l2.44-6H325v1.17l-1.54.23-2.16,5.36,2.45,5.62,1.53.23v1.17h-2.62l-2.76-6.26h-3V116l1.66.23v1.17h-4.91Z"/><path class="cls-1" d="M338.33,113.65c0,2.55-1.3,3.85-3.85,3.85h-2.34c-2.52,0-3.85-1.3-3.85-3.85v-6.34c0-2.52,1.33-3.85,3.85-3.85h2.34c2.55,0,3.85,1.33,3.85,3.85Zm-1.61-6.24c0-1.77-.7-2.47-2.45-2.47h-1.9c-1.76,0-2.46.7-2.46,2.45v6.16c0,1.77.7,2.47,2.46,2.47h1.9c1.75,0,2.45-.7,2.45-2.44Z"/><path class="cls-1" d="M344.44,98.65V116l1.67.23v1.17h-4.92V116.2l1.64-.23V100.05l-1.64-.23V98.65Z"/><path class="cls-1" d="M349.82,103.59h4.4c2.55,0,3.85,1.33,3.85,3.85V116l1.66.23v1.17H352.5c-2.52,0-3.79-1.3-3.79-3.79v-.26c0-2.5,1.27-3.83,3.79-3.83h4v-2c0-1.72-.71-2.45-2.45-2.45h-4.19Zm2.92,7.31c-1.72,0-2.42.7-2.42,2.44s.6,2.63,2.42,2.63h3.72V110.9Z"/><path class="cls-1" d="M158.19,131.76h4.4c2.55,0,3.85,1.33,3.85,3.85v8.53l1.66.23v1.17h-7.23c-2.52,0-3.8-1.3-3.8-3.79v-.26c0-2.5,1.28-3.82,3.8-3.82h3.95v-2c0-1.72-.7-2.44-2.44-2.44h-4.19Zm2.91,7.31c-1.71,0-2.41.7-2.41,2.44s.59,2.63,2.41,2.63h3.72v-5.07Z"/><path class="cls-1" d="M184.92,144.61h-4.13c-2.52,0-3.85-1.33-3.85-3.85v-5.15c0-2.52,1.33-3.85,3.85-3.85h5.75v14.88c0,2.52-1.33,3.84-3.85,3.84H178V149h4.5c1.74,0,2.44-.73,2.44-2.44ZM181,133.25c-1.76,0-2.47.72-2.47,2.44v5c0,1.72.71,2.45,2.47,2.45h3.9v-9.88Z"/><path class="cls-1" d="M200.48,146.64c0,2.68-1.43,3.84-4.14,3.84h-4.5V149h4.58c1.74,0,2.44-.73,2.44-2.44v-2.32h-4.1c-2.55,0-3.85-1.3-3.85-3.82v-7.25l-1.64-.24v-1.17h3.25v8.58c0,1.72.7,2.42,2.44,2.42h3.9v-9.59l-1.66-.24v-1.17h4.91v1.17l-1.63.24Z"/><path class="cls-1" d="M208,133.25v10.89l1.66.23v1.17h-4.91v-1.17l1.63-.23v-11l-1.63-.24v-1.17H217.9c2.55,0,3.85,1.3,3.85,3.85v8.53l1.64.23v1.17h-3.25v-9.85c0-1.72-.71-2.44-2.45-2.44h-2.83v10.89l1.66.23v1.17h-3.28V133.25Z"/><path class="cls-1" d="M238.7,145.54h-3.25v-9.85c0-1.74-.7-2.44-2.41-2.44h-3.93v10.89l1.66.23v1.17h-4.91v-1.17l1.64-.23v-11l-1.64-.24v-1.17h7.36c2.55,0,3.85,1.3,3.85,3.85v8.53l1.63.23Z"/><path class="cls-1" d="M242.42,131.76h4.4c2.55,0,3.85,1.33,3.85,3.85v8.53l1.66.23v1.17H245.1c-2.52,0-3.79-1.3-3.79-3.79v-.26c0-2.5,1.27-3.82,3.79-3.82h4v-2c0-1.72-.7-2.44-2.44-2.44h-4.19Zm2.92,7.31c-1.72,0-2.42.7-2.42,2.44s.6,2.63,2.42,2.63h3.71v-5.07Zm4.16-12-3.49,2.5-.7-.91,3.2-2.81Z"/><path class="cls-1" d="M257.32,143.91v.15h5.93l.24-2.23h1.22v3.71h-9.39v-1.48l7.36-10.66v-.15H257l-.24,2.26h-1.22v-3.75h9.13v1.49Z"/><path class="cls-1" d="M271.08,131.76v12.38l1.67.23v1.17h-4.92v-1.17l1.64-.23v-11l-1.64-.24v-1.17Zm-.83-5a1,1,0,0,1,1,1,1,1,0,0,1-1,.94.94.94,0,0,1-.94-.94A1,1,0,0,1,270.25,126.77Z"/><path class="cls-1" d="M274.44,131.76h3.25v9.86c0,1.74.7,2.44,2.44,2.44H284V133.17l-1.66-.24v-1.17h4.91v1.17l-1.64.24v11l1.64.23v1.17h-7.36c-2.55,0-3.85-1.3-3.85-3.84v-8.53l-1.63-.24Z"/><path class="cls-1" d="M293.65,133.25v10.89l1.67.23v1.17H290.4v-1.17l1.64-.23v-11l-1.64-.24v-1.17h13.19c2.55,0,3.85,1.3,3.85,3.85v8.53l1.63.23v1.17h-3.25v-9.85c0-1.72-.7-2.44-2.44-2.44h-2.84v10.89l1.67.23v1.17h-3.28V133.25Z"/></svg>